# xmcd CD database file generated by MAGIX_Freedb v0.9beta0
# 
# Track frame offsets:
#      150
#      14878
#      28364
#      43332
#      62390
#      83985
#      105423
#      123981
#      147168
#      161397
#      180470
#      197710
#      217006
#      236304
#      250753
#      264310
#      284403
# 
# Disc length: 4005 seconds
# 
# Revision: 0 
# Processed by: cddbd v1.4PL0 Copyright (c) Steve Scherf et al.
# Submitted via: MAGIX_Freedb v0.9beta0
# 
DISCID=f10fa311
DTITLE=John Denver - Take me home Countryroads
DYEAR=1900
DGENRE=
TTITLE0=Take me home countryroads
TTITLE1=Whispering Jesse
TTITLE2=For you
TTITLE3=Hold on to me
TTITLE4=Eagles and horses
TTITLE5=The gift you are
TTITLE6=Tenderley calling
TTITLE7=Sunshine on my shoulder
TTITLE8=Annie´s Song
TTITLE9=Rocky mountain high
TTITLE10=Calypso
TTITLE11=Potter´s wheel
TTITLE12=To the wild country
TTITLE13=Home grown tomatoes
TTITLE14=Eagle and the hawk
TTITLE15=Ponies
TTITLE16=Two different directions
EXTD=
EXTT0=
EXTT1=
EXTT2=
EXTT3=
EXTT4=
EXTT5=
EXTT6=
EXTT7=
EXTT8=
EXTT9=
EXTT10=
EXTT11=
EXTT12=
EXTT13=
EXTT14=
EXTT15=
EXTT16=
PLAYORDER=
